<svg width="642" height="482" xmlns="http://www.w3.org/2000/svg">

 <g>
  <title>background</title>
  <rect fill="none" id="canvas_background" height="484" width="644" y="-1" x="-1"/>
 </g>
 <g>
  <title>Layer 1</title>
  <g stroke="null" id="svg_30">
   <path stroke="null" id="svg_2" fill="#F78F4B" d="m272.054161,249.410425c1.077069,0.29271 2.223422,0.451871 3.413867,0.451871c3.970247,0 7.468096,-1.767238 9.510957,-4.449012c2.044961,2.681774 5.542809,4.449012 9.513266,4.449012c3.972347,0 7.467886,-1.767238 9.513056,-4.449012c2.044961,2.681774 5.54092,4.449012 9.510957,4.449012c1.190444,0 2.336798,-0.159161 3.414077,-0.451871l-5.316058,22.00266l-5.706574,0l-5.708674,0l-5.706574,0l-5.706784,0l-5.708464,0l-5.706784,0l-5.316268,-22.00266z"/>
   <path stroke="null" id="svg_4" fill="#E2773B" d="m274.6154,251.409087c1.077069,0.29271 2.223422,0.451871 3.413867,0.451871c3.843644,0 7.240085,-1.658935 9.306881,-4.19783c-0.910994,-0.639938 -1.707983,-1.39824 -2.357374,-2.249844c-2.042651,2.681774 -5.54071,4.449012 -9.510957,4.449012c-1.190444,0 -2.336798,-0.159161 -3.413867,-0.451871l5.315848,22.00266l2.078344,0l-4.832742,-20.003998z"/>
   <path stroke="null" id="svg_5" fill="#E2773B" d="m316.077083,251.860958c0.087761,0 0.174473,-0.002744 0.261814,-0.004208l0.590813,-2.446143c-1.077279,0.29271 -2.223632,0.451871 -3.414077,0.451871c-2.303625,0 -4.445165,-0.598044 -6.2386,-1.621432c2.09388,2.209413 5.256641,3.61991 8.800049,3.61991z"/>
   <path stroke="null" id="svg_6" fill="#E2773B" d="m297.05328,251.860958c3.845534,0 7.240085,-1.658935 9.30856,-4.19783c-0.910784,-0.639755 -1.707563,-1.39824 -2.356954,-2.249844c-2.044961,2.681774 -5.54071,4.449012 -9.513056,4.449012c-2.304465,0 -4.447265,-0.598409 -6.241539,-1.622346c2.09409,2.210145 5.25853,3.621008 8.802989,3.621008z"/>
   <path stroke="null" id="svg_7" fill="#EF3E5C" d="m269.759144,205.105077c2.101858,0 3.806482,1.483675 3.806482,3.314943c0,1.831268 -1.704624,3.314943 -3.806482,3.314943c-2.099549,0 -3.804383,-1.483675 -3.804383,-3.314943c0,-1.831085 1.704834,-3.314943 3.804383,-3.314943z"/>
   <path stroke="null" id="svg_8" fill="#D63054" d="m267.004535,210.569611c0,-1.831268 1.704834,-3.314943 3.804383,-3.314943c1.081478,0 2.055458,0.394793 2.748729,1.025583c-0.084822,-1.765774 -1.750814,-3.175174 -3.798504,-3.175174c-2.099549,0 -3.804383,1.483675 -3.804383,3.314943c0,0.889107 0.404163,1.694426 1.057963,2.289726c-0.00231,-0.046834 -0.008188,-0.092753 -0.008188,-0.140135z"/>
   <path stroke="null" id="svg_9" fill="#EF3E5C" d="m301.787973,214.812079c-1.988483,1.587953 -4.167815,3.274695 -6.349036,5.212071c-2.399994,-2.131296 -4.799569,-3.962564 -6.943208,-5.689555c-4.392256,-3.539964 -7.701146,-6.646351 -7.701146,-11.01688c0,-3.589359 3.279495,-6.501825 7.323227,-6.501825c3.659514,0 5.490111,1.626371 7.321127,4.877284c1.830807,-3.250913 3.661613,-4.877284 7.323227,-4.877284c4.05003,0 7.329525,2.912467 7.329525,6.501825c0,4.566279 -3.615423,7.751332 -8.303716,11.494364z"/>
   <path stroke="null" id="svg_11" fill="#D63054" d="m292.201432,215.992067c-4.392256,-3.539964 -7.701146,-6.646351 -7.701146,-11.01688c0,-3.589359 3.279495,-6.501825 7.323227,-6.501825c0.449094,0 0.869843,0.025246 1.267078,0.074092c-1.267708,-1.151083 -2.795549,-1.731564 -4.972992,-1.731564c-4.043731,0 -7.323227,2.912467 -7.323227,6.501825c0,4.370529 3.308889,7.476916 7.701146,11.01688c2.143639,1.72699 4.543424,3.558258 6.943208,5.689555c0.287218,-0.255207 0.574437,-0.505474 0.861445,-0.752265c-1.421605,-1.159132 -2.807097,-2.23905 -4.098739,-3.279818z"/>
   <path stroke="null" id="svg_12" fill="#FFECB2" d="m288.696072,214.509348c2.143639,1.72699 4.543424,3.558258 6.943208,5.689555c2.181431,-1.937376 4.360763,-3.624118 6.349036,-5.212071c5.807352,2.387418 9.825889,7.535458 9.825889,13.499429c0,0.616521 -0.044091,1.222065 -0.125973,1.818462c0.659258,-0.102449 1.335103,-0.159161 2.027954,-0.159161c6.304946,0 11.415248,4.452854 11.415248,9.944829c0,4.458342 -3.363477,8.228816 -8.001171,9.494787c-1.077279,0.29271 -2.223632,0.451871 -3.414077,0.451871c-3.970037,0 -7.465996,-1.767238 -9.510957,-4.449012c-2.044961,2.681774 -5.54071,4.449012 -9.513056,4.449012c-3.970247,0 -7.468096,-1.767238 -9.513266,-4.449012c-2.042651,2.681774 -5.54071,4.449012 -9.510957,4.449012c-1.190444,0 -2.336798,-0.159161 -3.413867,-0.451871c-4.635804,-1.265972 -8.001381,-5.036445 -8.001381,-9.494787c0,-5.491975 5.110302,-9.944829 11.415248,-9.944829c0.692851,0 1.368906,0.056713 2.028164,0.159161c-0.082092,-0.596397 -0.126183,-1.201941 -0.126183,-1.818462c0.00063,-6.401023 4.628036,-11.860251 11.12614,-13.976912z"/>
   <path stroke="null" id="svg_14" fill="#E5CF93" d="m265.954971,241.990221c0,-5.491975 5.110302,-9.944829 11.415248,-9.944829c0.692851,0 1.368906,0.056713 2.028164,0.159161c-0.082092,-0.596397 -0.126183,-1.201941 -0.126183,-1.818462c0,-6.401206 4.627406,-11.860251 11.12551,-13.976912c2.143639,1.72699 4.543424,3.558258 6.943208,5.689555c2.181431,-1.937376 4.360763,-3.624118 6.349036,-5.212071c1.916258,0.787756 3.635999,1.877736 5.082588,3.196944c-1.72436,-2.267223 -4.138841,-4.101419 -6.984989,-5.271345c-1.988483,1.587953 -4.167815,3.274695 -6.349036,5.212071c-2.399994,-2.131296 -4.799569,-3.962564 -6.943208,-5.689555c-6.498104,2.116661 -11.12551,7.575706 -11.12551,13.976912c0,0.616521 0.044091,1.222065 0.126183,1.818462c-0.659468,-0.102449 -1.335313,-0.159161 -2.028164,-0.159161c-6.304946,0 -11.415248,4.452854 -11.415248,9.944829c0,2.826483 1.353999,5.375623 3.525563,7.186218c-1.029409,-1.494103 -1.623161,-3.241948 -1.623161,-5.111818z"/>
   <path stroke="null" id="svg_15" fill="#E5CF93" d="m313.515844,239.915638c1.052084,0 1.902401,0.742935 1.902401,1.659301c0,0.914719 -0.850317,1.657472 -1.902401,1.657472c-1.049774,0 -1.902191,-0.742752 -1.902191,-1.657472c0.00021,-0.916366 0.852417,-1.659301 1.902191,-1.659301z"/>
   <path stroke="null" id="svg_16" fill="#E5CF93" d="m298.296423,229.970809c1.051874,0 1.902191,0.740923 1.902191,1.657472c0,0.914719 -0.850317,1.657472 -1.902191,1.657472c-1.049774,0 -1.902401,-0.742752 -1.902401,-1.657472c0,-0.916549 0.852627,-1.657472 1.902401,-1.657472z"/>
   <path stroke="null" id="svg_17" fill="#E5CF93" d="m284.978774,224.996565c1.051874,0 1.904291,0.742752 1.904291,1.657472c0,0.916549 -0.852627,1.657472 -1.904291,1.657472c-1.049774,0 -1.902191,-0.740923 -1.902191,-1.657472c0.00021,-0.914719 0.852417,-1.657472 1.902191,-1.657472z"/>
   <path stroke="null" id="svg_18" fill="#E5CF93" d="m283.076793,234.943223c1.051874,0 1.902191,0.742752 1.902191,1.657472s-0.850317,1.657654 -1.902191,1.657654c-1.049774,0 -1.902401,-0.742935 -1.902401,-1.657654s0.852627,-1.657472 1.902401,-1.657472z"/>
   <path stroke="null" id="svg_19" fill="#E5CF93" d="m273.565626,238.258166c1.049774,0 1.902401,0.742752 1.902401,1.657472c0,0.916732 -0.852627,1.659301 -1.902401,1.659301c-1.051874,0 -1.902191,-0.742752 -1.902191,-1.659301c0,-0.914719 0.850317,-1.657472 1.902191,-1.657472z"/>
   <path stroke="null" id="svg_20" fill="#E2773B" d="m305.907288,272.327804c-0.579895,0 -1.049774,-0.409428 -1.049774,-0.914719l0,-16.576362c0,-0.505291 0.469879,-0.914719 1.049774,-0.914719s1.049774,0.409428 1.049774,0.914719l0,16.576362c0,0.505291 -0.469879,0.914719 -1.049774,0.914719z"/>
   <path stroke="null" id="svg_21" fill="#E2773B" d="m300.198614,272.327804c-0.579895,0 -1.049774,-0.409428 -1.049774,-0.914719l0,-9.946476c0,-0.505291 0.469879,-0.914719 1.049774,-0.914719s1.049774,0.409428 1.049774,0.914719l0,9.946476c0,0.505291 -0.470089,0.914719 -1.049774,0.914719z"/>
   <path stroke="null" id="svg_22" fill="#E2773B" d="m294.49204,272.327804c-0.579895,0 -1.049774,-0.409428 -1.049774,-0.914719l0,-16.576362c0,-0.505291 0.469879,-0.914719 1.049774,-0.914719s1.049774,0.409428 1.049774,0.914719l0,16.576362c0,0.505291 -0.469879,0.914719 -1.049774,0.914719z"/>
   <path stroke="null" id="svg_23" fill="#E2773B" d="m288.785256,272.327804c-0.579685,0 -1.049774,-0.409428 -1.049774,-0.914719l0,-9.946476c0,-0.505291 0.470089,-0.914719 1.049774,-0.914719c0.579895,0 1.049774,0.409428 1.049774,0.914719l0,9.946476c0,0.505291 -0.469879,0.914719 -1.049774,0.914719z"/>
   <path stroke="null" id="svg_24" fill="#E2773B" d="m283.076793,272.327804c-0.579895,0 -1.049774,-0.409428 -1.049774,-0.914719l0,-16.576362c0,-0.505291 0.469879,-0.914719 1.049774,-0.914719c0.579685,0 1.049774,0.409428 1.049774,0.914719l0,16.576362c0,0.505291 -0.470089,0.914719 -1.049774,0.914719z"/>
   <path stroke="null" id="svg_25" fill="#EF3E5C" d="m260.04873,219.455195c2.101858,0 3.806482,1.483675 3.806482,3.314943c0,1.831268 -1.704624,3.314943 -3.806482,3.314943c-2.099549,0 -3.804383,-1.483675 -3.804383,-3.314943c0,-1.831268 1.704834,-3.314943 3.804383,-3.314943z"/>
   <path stroke="null" id="svg_26" fill="#D63054" d="m257.294122,224.919728c0,-1.831268 1.704834,-3.314943 3.804383,-3.314943c1.081478,0 2.055458,0.394793 2.748729,1.025583c-0.084822,-1.765774 -1.750814,-3.175174 -3.798504,-3.175174c-2.099549,0 -3.804383,1.483675 -3.804383,3.314943c0,0.889107 0.404163,1.694426 1.057963,2.289726c-0.00231,-0.046834 -0.008188,-0.092935 -0.008188,-0.140135z"/>
   <path stroke="null" id="svg_27" fill="#EF3E5C" d="m323.770251,217.623927c2.101649,0 3.806272,1.483675 3.806272,3.314943c0,1.831268 -1.704624,3.314943 -3.806272,3.314943c-2.099549,0 -3.804593,-1.483675 -3.804593,-3.314943c0,-1.831085 1.705044,-3.314943 3.804593,-3.314943z"/>
   <path stroke="null" id="svg_28" fill="#D63054" d="m321.015432,223.08846c0,-1.831268 1.705044,-3.314943 3.804593,-3.314943c1.081268,0 2.055248,0.394793 2.74852,1.025583c-0.084612,-1.765774 -1.750814,-3.175174 -3.798294,-3.175174c-2.099549,0 -3.804593,1.483675 -3.804593,3.314943c0,0.889107 0.404373,1.694426 1.057963,2.289726c-0.00231,-0.046834 -0.008188,-0.092753 -0.008188,-0.140135z"/>
   <path stroke="null" id="svg_29" fill="#FFECB2" d="m324.931091,272.327804l-60.878522,0c-0.579895,0 -1.049774,-0.409428 -1.049774,-0.914719s0.469879,-0.914719 1.049774,-0.914719l60.878522,0c0.579895,0 1.049774,0.409428 1.049774,0.914719s-0.469879,0.914719 -1.049774,0.914719z"/>
  </g>
 </g>
</svg>